<svg width="21" height="20" viewBox="0 0 21 20" fill="none" xmlns="http://www.w3.org/2000/svg">
<path d="M6.427 9.23904C6.33523 9.11922 6.19973 9.04064 6.05016 9.02049C5.90059 9.00034 5.74912 9.04026 5.62892 9.13152C5.5582 9.18729 5.50115 9.25848 5.46213 9.33966L0.562 19.1427C0.492597 19.2816 0.481197 19.4424 0.530307 19.5897C0.579416 19.7371 0.685014 19.8589 0.823892 19.9284C0.905068 19.9694 0.994814 19.9907 1.08578 19.9904H7.91289C8.02224 19.9932 8.13003 19.964 8.22306 19.9065C8.31609 19.849 8.39033 19.7655 8.43668 19.6665C9.91016 16.623 9.01697 11.9958 6.427 9.23904Z" fill="url(#paint0_linear_1_948)"/>
<path d="M10.0287 0.318096C8.8071 2.19786 8.09519 4.36289 7.96277 6.60078C7.83035 8.83867 8.28196 11.0726 9.2733 13.0833L12.5649 19.6664C12.6135 19.7637 12.6883 19.8455 12.7808 19.9027C12.8733 19.9599 12.9799 19.9903 13.0887 19.9903H19.9144C19.9914 19.9905 20.0676 19.9755 20.1388 19.9461C20.2099 19.9167 20.2746 19.8736 20.329 19.8191C20.3835 19.7647 20.4266 19.7001 20.456 19.6289C20.4853 19.5577 20.5004 19.4815 20.5002 19.4045C20.5003 19.3137 20.4795 19.2241 20.4395 19.1426L11.0252 0.31534C10.9805 0.220998 10.91 0.141281 10.8218 0.0854577C10.7336 0.0296347 10.6313 0 10.5269 0C10.4225 0 10.3203 0.0296347 10.2321 0.0854577C10.1439 0.141281 10.0733 0.220998 10.0287 0.31534V0.318096Z" fill="#2684FF"/>
<defs>
<linearGradient id="paint0_linear_1_948" x1="9.12449" y1="10.7373" x2="3.95005" y2="19.6995" gradientUnits="userSpaceOnUse">
<stop stop-color="#0052CC"/>
<stop offset="0.92" stop-color="#2684FF"/>
</linearGradient>
</defs>
</svg>
