<svg width="21" height="20" viewBox="0 0 21 20" fill="none" xmlns="http://www.w3.org/2000/svg">
<g clip-path="url(#clip0_1_842)">
<path d="M18.6871 -0.000854492H2.31323C1.3119 -0.000854492 0.500183 0.810864 0.500183 1.81219V18.1861C0.500183 19.1874 1.3119 19.9991 2.31323 19.9991H18.6871C19.6885 19.9991 20.5002 19.1874 20.5002 18.1861V1.81219C20.5002 0.810864 19.6885 -0.000854492 18.6871 -0.000854492Z" fill="#DC395F"/>
<path d="M7.18409 6.29259C7.84894 6.29259 8.40589 5.7715 8.40589 5.08853C8.40589 4.40603 7.84894 3.88501 7.18409 3.88501C6.51925 3.88501 5.96245 4.40603 5.96245 5.08853C5.96245 5.77142 6.51925 6.29259 7.18409 6.29259ZM4.65081 12.7395C4.57902 13.0449 4.543 13.3748 4.543 13.6439C4.543 14.7041 5.11792 15.4079 6.33972 15.4079C7.353 15.4079 8.17449 14.8062 8.76597 13.8346L8.4048 15.284H10.4169L11.5669 10.6716C11.8544 9.50377 12.4114 8.8976 13.2559 8.8976C13.9207 8.8976 14.3339 9.31103 14.3339 9.99354C14.3339 10.1913 14.3159 10.4067 14.244 10.6403L13.651 12.7604C13.5612 13.0659 13.5254 13.3715 13.5254 13.6588C13.5254 14.6653 14.1182 15.4014 15.3579 15.4014C16.418 15.4014 17.2624 14.719 17.7296 13.0839L16.9391 12.7788C16.5438 13.8742 16.2024 14.0722 15.9328 14.0722C15.6633 14.0722 15.5196 13.8927 15.5196 13.5335C15.5196 13.3718 15.5557 13.1924 15.6094 12.9763L16.1845 10.9108C16.3282 10.4258 16.3821 9.99572 16.3821 9.60057C16.3821 8.05541 15.4478 7.249 14.3159 7.249C13.2559 7.249 12.1778 8.20517 11.6389 9.2115L12.034 7.40525H8.96183L8.53058 8.99619H9.968L9.08284 12.5399C8.38777 14.0851 7.11097 14.1102 6.95074 14.0743C6.68761 14.0149 6.51933 13.915 6.51933 13.5731C6.51933 13.3759 6.55527 13.0925 6.64511 12.7509L7.99277 7.40525H4.57902L4.14777 8.99619H5.56706L4.65089 12.7395" fill="white"/>
</g>
<defs>
<clipPath id="clip0_1_842">
<rect x="0.500183" y="-0.000854492" width="20" height="20" fill="white"/>
</clipPath>
</defs>
</svg>
